<svg xmlns="http://www.w3.org/2000/svg" viewBox="0 0 608.62 68.89"><defs><style>.cls-1{fill:#fff;}.cls-2{fill:#00e0b4;}</style></defs><g id="Layer_2" data-name="Layer 2"><g id="Elements"><path class="cls-1" d="M293.12.25h6.17V20h.53c1.36-2.1,3.76-6.91,11.61-6.91,10.15,0,17.16,8.06,17.16,20.72s-7,20.82-17.06,20.82c-7.74,0-10.35-4.82-11.71-7h-.74v6.17h-6ZM310.7,49.11c7.74,0,11.71-6.8,11.71-15.38s-3.87-15.06-11.71-15.06c-7.54,0-11.51,6.06-11.51,15.06S303.27,49.11,310.7,49.11Z"/><path class="cls-1" d="M332.34,68.15l1.57-5.44c4.5,1.15,7.27.58,9.52-5.54L344.58,54,329.72,13.64h6.7l11.09,32h.42l11.09-32h6.69l-17,46c-2.33,6.25-6.25,9.21-11.82,9.21A12,12,0,0,1,332.34,68.15Z"/><path class="cls-1" d="M0,13.39H6v6.38H6.7c1.36-2.09,3.76-6.9,11.61-6.9,10.15,0,17.16,8.06,17.16,20.72s-7,20.82-17.06,20.82c-7.74,0-10.35-4.82-11.71-7H6.17V68.63H0ZM17.58,48.86c7.74,0,11.72-6.8,11.72-15.38S25.42,18.41,17.58,18.41C10,18.41,6.07,24.48,6.07,33.48S10.15,48.86,17.58,48.86Z"/><path class="cls-1" d="M39.32,33.69c0-12.56,7.33-20.82,18.21-20.82s18.2,8.26,18.2,20.82-7.32,20.72-18.2,20.72S39.32,46.14,39.32,33.69Zm30.24,0c0-8.06-3.77-15.28-12-15.28s-12,7.22-12,15.28,3.76,15.17,12,15.17S69.56,41.75,69.56,33.69Z"/><path class="cls-1" d="M77,13.39h6.49l8.68,30.76h.42l8.58-30.76h6.59l8.48,30.66h.41l8.69-30.66h6.48L119.55,53.57h-6.06L104.7,22.7h-.63L95.28,53.57H89.21Z"/><path class="cls-1" d="M133,33.79c0-12.34,7.22-20.92,18.1-20.92,8.37,0,17.26,5.13,17.26,20.09v2.61H139.23c.29,8.61,5.29,13.29,12.53,13.29,4.84,0,8.48-2.09,10.05-6.28l6,1.68c-1.88,6.07-7.84,10.15-16,10.15C140.15,54.41,133,46.14,133,33.79Zm29.08-3.55c0-6.8-4.29-11.83-11-11.83-7.07,0-11.49,5.58-11.91,11.83Z"/><path class="cls-1" d="M174.14,13.39h6v6.07h.42c1.46-4,5.65-6.7,10.46-6.7.92,0,2.54.06,3.25.11v6.28a18.47,18.47,0,0,0-3.77-.42c-5.86,0-10.15,4-10.15,9.41V53.57h-6.17Z"/><path class="cls-1" d="M194.73,33.79c0-12.34,7.22-20.92,18.1-20.92,8.37,0,17.26,5.13,17.26,20.09v2.61H200.93c.29,8.61,5.28,13.29,12.53,13.29,4.84,0,8.47-2.09,10-6.28l6,1.68c-1.89,6.07-7.85,10.15-16,10.15C201.85,54.41,194.73,46.14,194.73,33.79Zm29.09-3.55c0-6.8-4.29-11.83-11-11.83-7.06,0-11.48,5.58-11.9,11.83Z"/><path class="cls-1" d="M234,33.59c0-12.66,7-20.72,17.16-20.72,7.84,0,10.25,4.81,11.61,6.9h.52V0h6.18V53.57h-6V47.4h-.73c-1.36,2.19-4,7-11.72,7C241,54.41,234,46.35,234,33.59Zm29.4-.11c0-9-4-15.07-11.51-15.07-7.85,0-11.72,6.6-11.72,15.07s4,15.38,11.72,15.38C259.27,48.86,263.35,42.58,263.35,33.48Z"/><path class="cls-1" d="M293.12.25h6.17V20h.53c1.36-2.1,3.76-6.91,11.61-6.91,10.15,0,17.16,8.06,17.16,20.72s-7,20.82-17.06,20.82c-7.74,0-10.35-4.82-11.71-7h-.74v6.17h-6ZM310.7,49.11c7.74,0,11.71-6.8,11.71-15.38s-3.87-15.06-11.71-15.06c-7.54,0-11.51,6.06-11.51,15.06S303.27,49.11,310.7,49.11Z"/><path class="cls-1" d="M332.34,68.15l1.57-5.44c4.5,1.15,7.27.58,9.52-5.54L344.58,54,329.72,13.64h6.7l11.09,32h.42l11.09-32h6.69l-17,46c-2.33,6.25-6.25,9.21-11.82,9.21A12,12,0,0,1,332.34,68.15Z"/><path class="cls-1" d="M0,13.39H6v6.38H6.7c1.36-2.09,3.76-6.9,11.61-6.9,10.15,0,17.16,8.06,17.16,20.72s-7,20.82-17.06,20.82c-7.74,0-10.35-4.82-11.71-7H6.17V68.63H0ZM17.58,48.86c7.74,0,11.72-6.8,11.72-15.38S25.42,18.41,17.58,18.41C10,18.41,6.07,24.48,6.07,33.48S10.15,48.86,17.58,48.86Z"/><path class="cls-1" d="M39.32,33.69c0-12.56,7.33-20.82,18.21-20.82s18.2,8.26,18.2,20.82-7.32,20.72-18.2,20.72S39.32,46.14,39.32,33.69Zm30.24,0c0-8.06-3.77-15.28-12-15.28s-12,7.22-12,15.28,3.76,15.17,12,15.17S69.56,41.75,69.56,33.69Z"/><path class="cls-1" d="M77,13.39h6.49l8.68,30.76h.42l8.58-30.76h6.59l8.48,30.66h.41l8.69-30.66h6.48L119.55,53.57h-6.06L104.7,22.7h-.63L95.28,53.57H89.21Z"/><path class="cls-1" d="M133,33.79c0-12.34,7.22-20.92,18.1-20.92,8.37,0,17.26,5.13,17.26,20.09v2.61H139.23c.29,8.61,5.29,13.29,12.53,13.29,4.84,0,8.48-2.09,10.05-6.28l6,1.68c-1.88,6.07-7.84,10.15-16,10.15C140.15,54.41,133,46.14,133,33.79Zm29.08-3.55c0-6.8-4.29-11.83-11-11.83-7.07,0-11.49,5.58-11.91,11.83Z"/><path class="cls-1" d="M174.14,13.39h6v6.07h.42c1.46-4,5.65-6.7,10.46-6.7.92,0,2.54.06,3.25.11v6.28a18.47,18.47,0,0,0-3.77-.42c-5.86,0-10.15,4-10.15,9.41V53.57h-6.17Z"/><path class="cls-1" d="M194.73,33.79c0-12.34,7.22-20.92,18.1-20.92,8.37,0,17.26,5.13,17.26,20.09v2.61H200.93c.29,8.61,5.28,13.29,12.53,13.29,4.84,0,8.47-2.09,10-6.28l6,1.68c-1.89,6.07-7.85,10.15-16,10.15C201.85,54.41,194.73,46.14,194.73,33.79Zm29.09-3.55c0-6.8-4.29-11.83-11-11.83-7.06,0-11.48,5.58-11.9,11.83Z"/><path class="cls-1" d="M234,33.59c0-12.66,7-20.72,17.16-20.72,7.84,0,10.25,4.81,11.61,6.9h.52V0h6.18V53.57h-6V47.4h-.73c-1.36,2.19-4,7-11.72,7C241,54.41,234,46.35,234,33.59Zm29.4-.11c0-9-4-15.07-11.51-15.07-7.85,0-11.72,6.6-11.72,15.07s4,15.38,11.72,15.38C259.27,48.86,263.35,42.58,263.35,33.48Z"/><path class="cls-1" d="M382.7,32.9c0-12.44,7.47-20.75,19.24-20.75s19.23,8.31,19.23,20.75-7.47,20.7-19.23,20.7S382.7,45.32,382.7,32.9Zm28.88,0c0-7.34-3.19-13.22-9.59-13.22s-9.7,5.88-9.7,13.22S395.48,46,402,46,411.58,40.22,411.58,32.87Z"/><path class="cls-1" d="M425.49,13.47h9.31v6.64h.55A11.91,11.91,0,0,1,446.82,13c9.28,0,16.58,7.27,16.58,20.65,0,13.23-7.09,20.73-16.55,20.73a12.11,12.11,0,0,1-11.5-7H435V68.68h-9.47Zm18.72,33.1c6.25,0,9.54-5.49,9.54-13s-3.24-12.84-9.54-12.84c-6.09,0-9.44,5.05-9.44,12.84S438.17,46.57,444.21,46.57Z"/><path class="cls-1" d="M466.15,33.6c0-13.38,7.29-20.65,16.57-20.65a11.9,11.9,0,0,1,11.47,7.16h.4V.09h9.48V53.62h-9.3V47.3h-.58a12.11,12.11,0,0,1-11.5,7C473.23,54.33,466.15,46.83,466.15,33.6Zm28.62-.05c0-7.79-3.35-12.84-9.44-12.84-6.3,0-9.54,5.36-9.54,12.84s3.29,13,9.54,13C491.37,46.57,494.77,41.34,494.77,33.55Z"/><path class="cls-1" d="M508.63,42.36c0-9,7.45-11.37,15.24-12.21,7.08-.76,9.93-.89,9.93-3.61v-.15c0-3.95-2.4-6.2-6.8-6.2-4.62,0-7.29,2.35-8.23,5.1L509.93,24C512,16.71,518.51,13,527,13c7.66,0,16.31,3.19,16.31,13.8V53.62h-9.09V48.11h-.32c-1.72,3.37-5.49,6.32-11.79,6.32C514.4,54.43,508.63,50.25,508.63,42.36Zm25.2-3.14V34.49c-1.23,1-6.2,1.62-8.68,2-4.24.6-7.4,2.12-7.4,5.75,0,3.48,2.82,5.28,6.77,5.28C530.22,47.48,533.83,43.69,533.83,39.22Z"/><path class="cls-1" d="M569.17,20.79h-7.92V41.55c0,3.81,1.91,4.65,4.29,4.65a11.73,11.73,0,0,0,2.77-.37l1.6,7.4a19.11,19.11,0,0,1-5.57.94c-7.11.21-12.6-3.5-12.55-11.06V20.79h-5.7V13.47h5.7V3.85h9.46v9.62h7.92Z"/><path class="cls-1" d="M571.27,33.78c0-12.39,7.5-20.83,19-20.83,9.89,0,18.35,6.19,18.35,20.28v2.91h-28C580.73,43,584.78,47,590.9,47c4.08,0,7.22-1.78,8.5-5.18l8.83,1c-1.67,7-8.1,11.56-17.46,11.56C578.67,54.41,571.27,46.38,571.27,33.78Zm28.28-4c0-5.47-3.71-9.44-9.14-9.44a9.65,9.65,0,0,0-9.73,9.44Z"/><path class="cls-2" d="M401.94,58.85a23.84,23.84,0,0,1-14-4.12,3.27,3.27,0,0,0-5.14,2.38,13.87,13.87,0,0,0-.07,1.46h0c0,5.58,3,10.11,6.62,10.11h25.23c3.66,0,6.62-4.53,6.62-10.11h0c0-.5,0-1-.06-1.46A3.28,3.28,0,0,0,416,54.73,23.88,23.88,0,0,1,401.94,58.85Z"/></g></g></svg>